<svg width="24" height="24" viewBox="0 0 24 24" fill="none" xmlns="http://www.w3.org/2000/svg">
<path d="M11.0002 6.99963L12.0002 8.66663M17.0002 16.9996L13.4002 10.9996M13.0002 6.99963L7.00017 16.9996M6.50017 13.9996H12.5002M17.5002 13.9996H15.5002M2.50017 11.9996C2.50017 7.52163 2.50017 5.28163 3.89117 3.89063C5.28217 2.49963 7.52117 2.49963 12.0002 2.49963C16.4782 2.49963 18.7182 2.49963 20.1092 3.89063C21.5002 5.28163 21.5002 7.52063 21.5002 11.9996C21.5002 16.4776 21.5002 18.7176 20.1092 20.1086C18.7182 21.4996 16.4792 21.4996 12.0002 21.4996C7.52217 21.4996 5.28217 21.4996 3.89117 20.1086C2.50017 18.7176 2.50017 16.4786 2.50017 11.9996Z" stroke="currentColor" stroke-width="1.5" stroke-linecap="round" stroke-linejoin="round"/>
</svg>
