<svg width="181" height="28" viewBox="0 0 181 28" fill="none" xmlns="http://www.w3.org/2000/svg">
<path fill-rule="evenodd" clip-rule="evenodd" d="M0 3C0 1.34315 1.34315 0 3 0H25C26.6569 0 28 1.34315 28 3V25C28 26.6569 26.6569 28 25 28H3C1.34315 28 0 26.6569 0 25V3ZM14.0001 25.5688L10.5806 22.1668H5.83345V17.4196L2.43262 14.0001L5.83345 10.5806V5.83345H10.5806L14.0001 2.43262L17.4196 5.83345H22.1668V10.5806L25.5688 14.0001L22.1668 17.4196V22.1668H17.4196L14.0001 25.5688ZM14.0001 18.9363C15.3659 18.9363 16.5298 18.4548 17.492 17.492C18.4541 16.5291 18.9355 15.3651 18.9363 14.0001C18.9371 12.6351 18.4556 11.4712 17.492 10.5083C16.5283 9.54539 15.3643 9.06395 14.0001 9.06395C12.6359 9.06395 11.472 9.54539 10.5083 10.5083C9.54462 11.4712 9.06317 12.6351 9.06395 14.0001C9.06473 15.3651 9.54617 16.5291 10.5083 17.492C11.4704 18.4548 12.6343 18.9363 14.0001 18.9363ZM14.0001 23.9168L16.9168 21.0001H21.0001V16.9168L23.9168 14.0001L21.0001 11.0835V7.00012H16.9168L14.0001 4.08345L11.0835 7.00012H7.00012V11.0835L4.08345 14.0001L7.00012 16.9168V21.0001H11.0835L14.0001 23.9168ZM131.226 23.9124C132.532 24.5097 134.138 24.8084 136.042 24.8084C137.815 24.8084 139.327 24.5377 140.578 23.9964C141.847 23.455 142.818 22.6897 143.49 21.7004C144.18 20.7111 144.526 19.5537 144.526 18.2284C144.526 16.903 144.19 15.783 143.518 14.8684C142.846 13.9537 141.922 13.235 140.746 12.7124C139.57 12.171 138.216 11.835 136.686 11.7044L135.37 11.5924C134.492 11.5177 133.876 11.2937 133.522 10.9204C133.167 10.5471 132.99 10.099 132.99 9.57638C132.99 9.18438 133.083 8.82972 133.27 8.51238C133.475 8.19505 133.764 7.95238 134.138 7.78438C134.53 7.59772 135.006 7.50438 135.566 7.50438C136.163 7.50438 136.667 7.61638 137.078 7.84038C137.507 8.04572 137.834 8.33505 138.058 8.70838C138.282 9.08172 138.394 9.49238 138.394 9.94038H143.434C143.434 8.59638 143.126 7.42038 142.51 6.41238C141.894 5.38572 140.998 4.59238 139.822 4.03238C138.664 3.47238 137.246 3.19238 135.566 3.19238C134.016 3.19238 132.672 3.44438 131.534 3.94838C130.395 4.45238 129.508 5.18038 128.874 6.13238C128.258 7.08438 127.95 8.23238 127.95 9.57638C127.95 11.4617 128.575 12.9737 129.826 14.1124C131.076 15.251 132.756 15.9137 134.866 16.1004L136.182 16.2124C137.376 16.3057 138.226 16.5204 138.73 16.8564C139.234 17.1737 139.486 17.6311 139.486 18.2284C139.486 18.695 139.346 19.0964 139.066 19.4324C138.804 19.7684 138.412 20.0297 137.89 20.2164C137.386 20.4031 136.77 20.4964 136.042 20.4964C135.202 20.4964 134.511 20.3844 133.97 20.1604C133.428 19.9364 133.018 19.6284 132.738 19.2364C132.476 18.8257 132.346 18.3777 132.346 17.8924H127.306C127.306 19.2364 127.632 20.4311 128.286 21.4764C128.958 22.5031 129.938 23.3151 131.226 23.9124ZM165.206 24.2481V8.79209H169.238V12.8294C169.336 12.3262 169.467 11.8671 169.63 11.4521C170.041 10.3881 170.647 9.59475 171.45 9.07209C172.271 8.54942 173.261 8.28809 174.418 8.28809H174.642C176.397 8.28809 177.75 8.87609 178.702 10.0521C179.673 11.2094 180.158 12.9921 180.158 15.4001V24.2481H175.062V15.2601C175.062 14.5508 174.847 13.9721 174.418 13.5241C174.007 13.0574 173.438 12.8241 172.71 12.8241C171.982 12.8241 171.394 13.0574 170.946 13.5241C170.517 13.9721 170.302 14.5694 170.302 15.3161V24.2481H165.206ZM152.175 24.752C150.421 24.752 149.058 24.1827 148.087 23.044C147.135 21.8867 146.659 20.1227 146.659 17.752V8.79199H151.755V17.892C151.755 18.5827 151.961 19.1427 152.371 19.572C152.782 20.0013 153.333 20.216 154.023 20.216C154.714 20.216 155.274 20.0013 155.703 19.572C156.133 19.1427 156.347 18.564 156.347 17.836V8.79199H161.443V24.248H157.411V20.5921C157.321 20.9901 157.209 21.3594 157.075 21.7C156.683 22.7267 156.095 23.492 155.311 23.996C154.527 24.5 153.557 24.752 152.399 24.752H152.175ZM115.288 24.2476L110.724 17.0236H109.408V24.2476H104.312V3.80762H109.408V15.9946L114.7 8.79162H120.02L115.138 15.3876L120.972 24.2476H115.288ZM90.6952 24.1644C91.6845 24.5938 92.8512 24.8084 94.1952 24.8084C95.6138 24.8084 96.8738 24.5284 97.9752 23.9684C99.0765 23.4084 99.9538 22.6338 100.607 21.6444C101.279 20.6551 101.652 19.5071 101.727 18.2004H96.7432C96.6872 18.6671 96.5565 19.0778 96.3512 19.4324C96.1458 19.7684 95.8658 20.0298 95.5112 20.2164C95.1565 20.4031 94.7178 20.4964 94.1952 20.4964C93.4858 20.4964 92.9165 20.3378 92.4872 20.0204C92.0765 19.6844 91.7778 19.2178 91.5912 18.6204C91.4232 18.0231 91.3392 17.3418 91.3392 16.5764C91.3392 15.7551 91.4418 15.0458 91.6472 14.4484C91.8525 13.8511 92.1605 13.3844 92.5712 13.0484C93.0005 12.7124 93.5418 12.5444 94.1952 12.5444C94.9605 12.5444 95.5392 12.7591 95.9312 13.1884C96.3418 13.6178 96.5752 14.1404 96.6312 14.7564H101.615C101.54 13.4871 101.176 12.3671 100.523 11.3964C99.8885 10.4071 99.0298 9.63242 97.9472 9.07242C96.8645 8.51242 95.6138 8.23242 94.1952 8.23242C92.9072 8.23242 91.7685 8.44709 90.7792 8.87642C89.7898 9.30576 88.9592 9.89375 88.2872 10.6404C87.6152 11.3871 87.1018 12.2458 86.7472 13.2164C86.4112 14.1871 86.2432 15.2138 86.2432 16.2964V16.8564C86.2432 17.8831 86.4018 18.8724 86.7192 19.8244C87.0552 20.7764 87.5498 21.6258 88.2032 22.3724C88.8752 23.1191 89.7058 23.7164 90.6952 24.1644ZM79.7025 24.2477V21.3593C79.5821 21.7241 79.4328 22.0616 79.2545 22.3717C78.8438 23.0997 78.2651 23.6597 77.5185 24.0517C76.7905 24.4437 75.8851 24.6397 74.8025 24.6397C73.7198 24.6397 72.7585 24.4437 71.9185 24.0517C71.0785 23.6597 70.4158 23.0997 69.9305 22.3717C69.4638 21.6251 69.2305 20.7384 69.2305 19.7117C69.2305 18.5544 69.5385 17.6211 70.1545 16.9117C70.7705 16.1837 71.6198 15.6517 72.7025 15.3157C73.7851 14.9797 75.0265 14.8117 76.4265 14.8117H78.8621C78.8534 14.1308 78.6856 13.6268 78.3585 13.2997C78.0411 12.9451 77.5091 12.7677 76.7625 12.7677C76.4078 12.7677 75.8851 12.7771 75.1945 12.7957C74.5038 12.8144 73.7758 12.8424 73.0105 12.8797C72.2451 12.9171 71.5451 12.9544 70.9105 12.9917V8.73572C71.3585 8.69839 71.8905 8.66105 72.5065 8.62372C73.1225 8.58639 73.7571 8.55839 74.4105 8.53972C75.0825 8.52105 75.6985 8.51172 76.2585 8.51172C77.8451 8.51172 79.1891 8.74505 80.2905 9.21172C81.4105 9.67839 82.2598 10.3784 82.8385 11.3117C83.4358 12.2451 83.7345 13.4304 83.7345 14.8677V24.2477H79.7025ZM78.8625 17.4437V18.5357C78.8251 19.2264 78.6945 19.7677 78.4705 20.1597C78.2465 20.5517 77.9571 20.8317 77.6025 20.9997C77.2665 21.1491 76.8745 21.2237 76.4265 21.2237C75.7358 21.2237 75.2038 21.0557 74.8305 20.7197C74.4571 20.3651 74.2705 19.9077 74.2705 19.3477C74.2705 18.7691 74.4571 18.3117 74.8305 17.9757C75.2038 17.6211 75.7358 17.4437 76.4265 17.4437H78.8625ZM61.4958 7.50362V24.2476H66.5918V7.50362V3.80762H61.4958H59.7598V7.50362H61.4958ZM47.04 20.4396H50.988C51.7533 20.4396 52.3227 20.2437 52.696 19.8517C53.0693 19.4597 53.256 18.8903 53.256 18.1437C53.256 17.397 53.0693 16.837 52.696 16.4636C52.3227 16.0716 51.7533 15.8756 50.988 15.8756H47.04V20.4396ZM57.372 15.0076C56.9206 14.466 56.3534 14.0312 55.6703 13.7034C55.9821 13.4774 56.26 13.2215 56.504 12.9356C57.176 12.1516 57.512 11.1157 57.512 9.82765V9.40765C57.512 7.55965 56.8587 6.14098 55.552 5.15165C54.2453 4.14365 52.3973 3.63965 50.008 3.63965H47.04H46.48H42V24.4156H46.48H47.04H50.82C52.444 24.4156 53.816 24.1823 54.936 23.7157C56.056 23.249 56.9053 22.577 57.484 21.6996C58.0627 20.8223 58.352 19.7677 58.352 18.5357V18.1437C58.352 16.837 58.0253 15.7916 57.372 15.0076ZM50.232 12.0117H47.04V7.61565H50.232C50.9973 7.61565 51.548 7.81165 51.884 8.20365C52.2387 8.57698 52.416 9.11832 52.416 9.82765C52.416 10.5183 52.2387 11.0596 51.884 11.4516C51.548 11.825 50.9973 12.0117 50.232 12.0117Z" fill="black"/>
</svg>
