<svg width="24" height="24" viewBox="0 0 24 24" fill="none" xmlns="http://www.w3.org/2000/svg">
<path d="M9 6C9 7.415 9 8.122 8.56 8.56C8.121 9 7.415 9 6 9C4.585 9 3.878 9 3.44 8.56C3 8.121 3 7.415 3 6C3 4.585 3 3.878 3.44 3.44C3.879 3 4.585 3 6 3C7.415 3 8.122 3 8.56 3.44C9 3.879 9 4.585 9 6ZM9 6H12M18 9C16.585 9 15.878 9 15.44 8.56C15 8.121 15 7.415 15 6C15 4.585 15 3.878 15.44 3.44C15.879 3 16.585 3 18 3C19.415 3 20.122 3 20.56 3.44C21 3.879 21 4.585 21 6C21 7.415 21 8.122 20.56 8.56C20.121 9 19.415 9 18 9ZM18 9V12M15 18C15 16.585 15 15.878 15.44 15.44C15.879 15 16.585 15 18 15C19.415 15 20.122 15 20.56 15.44C21 15.879 21 16.586 21 18C21 19.414 21 20.121 20.56 20.56C20.121 21 19.414 21 18 21C16.586 21 15.879 21 15.44 20.56C15 20.121 15 19.415 15 18ZM15 18H12M6 15C7.415 15 8.122 15 8.56 15.44C9 15.879 9 16.585 9 18C9 19.415 9 20.122 8.56 20.56C8.121 21 7.415 21 6 21C4.585 21 3.878 21 3.44 20.56C3 20.121 3 19.415 3 18C3 16.585 3 15.878 3.44 15.44C3.879 15 4.585 15 6 15ZM6 15V12" stroke="currentColor" stroke-width="1.5" stroke-linecap="round" stroke-linejoin="round"/>
</svg>
