<svg width="24" height="24" viewBox="0 0 24 24" fill="none" xmlns="http://www.w3.org/2000/svg">
<path d="M11.9998 17.0004C12.2268 17.0004 12.4378 16.8944 12.8598 16.6824L16.2498 14.9784C17.7498 14.2244 18.4998 13.8474 18.4998 13.2504V5.75037M11.9998 17.0004C11.7728 17.0004 11.5618 16.8944 11.1398 16.6824L7.74983 14.9784C6.24983 14.2244 5.49983 13.8474 5.49983 13.2504V5.75037M11.9998 17.0004V9.50037M18.4998 5.75037C18.4998 5.15337 17.7498 4.77637 16.2498 4.02237L12.8598 2.31837C12.4378 2.10637 12.2268 2.00037 11.9998 2.00037C11.7728 2.00037 11.5618 2.10637 11.1398 2.31837L7.74983 4.02237C6.24983 4.77637 5.49983 5.15337 5.49983 5.75037M18.4998 5.75037C18.4998 6.34737 17.7498 6.72437 16.2498 7.47837L12.8598 9.18237C12.4378 9.39437 12.2268 9.50037 11.9998 9.50037M5.49983 5.75037C5.49983 6.34737 6.24983 6.72437 7.74983 7.47837L11.1398 9.18237C11.5618 9.39437 11.7728 9.50037 11.9998 9.50037M9.99983 20.7504C9.99983 20.0604 10.5598 19.5004 11.2498 19.5004H12.7498C13.4398 19.5004 13.9998 20.0604 13.9998 20.7504M9.99983 20.7504C9.99983 21.4404 10.5598 22.0004 11.2498 22.0004H12.7498C13.4398 22.0004 13.9998 21.4404 13.9998 20.7504M9.99983 20.7504H4.99983M13.9998 20.7504H18.9998" stroke="currentColor" stroke-width="1.5" stroke-linecap="round" stroke-linejoin="round"/>
</svg>
