<svg width="34" height="34" viewBox="0 0 34 34" fill="none" xmlns="http://www.w3.org/2000/svg">
<path d="M12.4567 24.5553C12.1049 24.4128 11.9095 24.3438 11.8016 24.3578C11.6677 24.374 11.4734 24.5165 11.0849 24.8003C10.4005 25.3033 9.5392 25.6638 8.26015 25.6325C7.61361 25.6174 7.29088 25.6099 7.14625 25.3638C7.00161 25.1187 7.18187 24.7787 7.54238 24.0987C8.04212 23.1554 8.35838 22.076 7.87914 21.2114C7.05234 19.9766 6.34968 18.513 6.24714 16.9339C6.19309 16.0756 6.19309 15.2147 6.24714 14.3564C6.52885 10.0184 9.9526 6.56338 14.2506 6.27842C15.7142 6.18128 17.2448 6.18128 18.7106 6.27842C22.9903 6.5623 26.4032 9.98928 26.7108 14.3013" stroke="currentColor" stroke-width="1.61905" stroke-linecap="round" stroke-linejoin="round"/>
<path d="M19.9125 27.4122C17.2033 27.2395 15.0446 25.1272 14.8675 22.4763C14.8326 21.9515 14.8326 21.4251 14.8675 20.9004C15.0456 18.2495 17.2033 16.1382 19.9125 15.9644C20.8364 15.9051 21.8014 15.9051 22.7232 15.9644C25.4324 16.1382 27.5911 18.2495 27.7681 20.9015C27.8027 21.4196 27.8027 21.9571 27.7681 22.4763C27.7034 23.4412 27.2608 24.336 26.7395 25.0905C26.4373 25.6194 26.6369 26.2778 26.9521 26.8542C27.1788 27.2697 27.2932 27.478 27.2014 27.6281C27.1097 27.7781 26.9068 27.7824 26.4999 27.7921C25.6936 27.8116 25.1507 27.5903 24.7189 27.2837C24.4739 27.11 24.3519 27.0225 24.2677 27.0128C24.1835 27.0031 24.0173 27.069 23.6849 27.2006C23.3773 27.3197 23.0534 27.391 22.7242 27.4122C21.7879 27.4704 20.8488 27.4704 19.9125 27.4122Z" stroke="currentColor" stroke-width="1.61905" stroke-linecap="round" stroke-linejoin="round"/>
</svg>
