<svg width="20" height="23" viewBox="0 0 20 23" fill="none" xmlns="http://www.w3.org/2000/svg">
<path d="M10 8.13281C9.20435 8.13281 8.44129 8.48098 7.87868 9.10073C7.31607 9.72048 7 10.561 7 11.4375C7 12.3139 7.31607 13.1545 7.87868 13.7742C8.44129 14.394 9.20435 14.7422 10 14.7422C10.7956 14.7422 11.5587 14.394 12.1213 13.7742C12.6839 13.1545 13 12.3139 13 11.4375C13 10.561 12.6839 9.72048 12.1213 9.10073C11.5587 8.48098 10.7956 8.13281 10 8.13281ZM10 5.92969C11.3261 5.92969 12.5979 6.50997 13.5355 7.54289C14.4732 8.57581 15 9.97674 15 11.4375C15 12.8983 14.4732 14.2992 13.5355 15.3321C12.5979 16.365 11.3261 16.9453 10 16.9453C8.67392 16.9453 7.40215 16.365 6.46447 15.3321C5.52678 14.2992 5 12.8983 5 11.4375C5 9.97674 5.52678 8.57581 6.46447 7.54289C7.40215 6.50997 8.67392 5.92969 10 5.92969ZM16.5 5.6543C16.5 6.01949 16.3683 6.36972 16.1339 6.62795C15.8995 6.88617 15.5815 7.03125 15.25 7.03125C14.9185 7.03125 14.6005 6.88617 14.3661 6.62795C14.1317 6.36972 14 6.01949 14 5.6543C14 5.28911 14.1317 4.93888 14.3661 4.68065C14.6005 4.42242 14.9185 4.27734 15.25 4.27734C15.5815 4.27734 15.8995 4.42242 16.1339 4.68065C16.3683 4.93888 16.5 5.28911 16.5 5.6543ZM10 2.625C7.526 2.625 7.122 2.63271 5.971 2.68889C5.187 2.72965 4.661 2.84531 4.173 3.05461C3.76462 3.21978 3.39541 3.48451 3.093 3.82901C2.78001 4.16212 2.53935 4.5688 2.389 5.0187C2.199 5.55846 2.094 6.13678 2.058 6.9993C2.006 8.21543 2 8.64063 2 11.4375C2 14.1628 2.007 14.6078 2.058 15.8757C2.095 16.7382 2.2 17.3187 2.389 17.8552C2.559 18.3344 2.759 18.6792 3.091 19.0449C3.428 19.415 3.741 19.6364 4.171 19.8193C4.665 20.0297 5.191 20.1465 5.971 20.1861C7.075 20.2434 7.461 20.25 10 20.25C12.474 20.25 12.878 20.2423 14.029 20.1861C14.811 20.1454 15.338 20.0297 15.826 19.8215C16.2338 19.6555 16.6027 19.3913 16.906 19.0482C17.243 18.677 17.444 18.3322 17.61 17.8585C17.8 17.3154 17.906 16.7349 17.942 15.8757C17.994 14.6596 18 14.2344 18 11.4375C18 8.71223 17.993 8.2672 17.942 6.9993C17.905 6.13788 17.8 5.55626 17.61 5.0187C17.4593 4.56926 17.2191 4.16274 16.907 3.82901C16.6047 3.48405 16.2355 3.21893 15.827 3.05351C15.337 2.84421 14.811 2.72855 14.029 2.68889C12.925 2.63161 12.539 2.625 10 2.625ZM10 0.421875C12.717 0.421875 13.056 0.432891 14.122 0.487969C15.187 0.543047 15.912 0.727008 16.55 1.0002C17.21 1.27999 17.766 1.65893 18.322 2.2703C18.8305 2.82097 19.224 3.48707 19.475 4.22227C19.722 4.92396 19.89 5.72369 19.94 6.89686C19.987 8.07112 20 8.44455 20 11.4375C20 14.4304 19.99 14.8039 19.94 15.9781C19.89 17.1513 19.722 17.9499 19.475 18.6527C19.2247 19.3884 18.8311 20.0546 18.322 20.6047C17.822 21.1646 17.2173 21.5981 16.55 21.8748C15.913 22.1469 15.187 22.332 14.122 22.387C13.056 22.4388 12.717 22.4531 10 22.4531C7.283 22.4531 6.944 22.4421 5.878 22.387C4.813 22.332 4.088 22.1469 3.45 21.8748C2.78233 21.5989 2.17753 21.1653 1.678 20.6047C1.16941 20.0541 0.775931 19.388 0.525 18.6527C0.277 17.951 0.11 17.1513 0.0599999 15.9781C0.0129999 14.8039 0 14.4304 0 11.4375C0 8.44455 0.00999994 8.07112 0.0599999 6.89686C0.11 5.72259 0.277 4.92506 0.525 4.22227C0.775236 3.48662 1.1688 2.82033 1.678 2.2703C2.17767 1.70985 2.78243 1.27639 3.45 1.0002C4.088 0.727008 4.812 0.543047 5.878 0.487969C6.944 0.436195 7.283 0.421875 10 0.421875Z" fill="currentColor"/>
</svg>
