<svg width="20" height="21" viewBox="0 0 20 21" fill="none" xmlns="http://www.w3.org/2000/svg">
<path d="M4 2.72766C3.99974 3.31197 3.78877 3.87223 3.41351 4.28519C3.03825 4.69815 2.52943 4.92999 1.999 4.92969C1.46857 4.9294 0.959965 4.697 0.585079 4.28363C0.210194 3.87026 -0.000264966 3.30976 2.50361e-07 2.72546C0.000265467 2.14116 0.211233 1.5809 0.586494 1.16794C0.961754 0.754979 1.47057 0.523146 2.001 0.523438C2.53143 0.52373 3.04004 0.756124 3.41492 1.1695C3.78981 1.58287 4.00027 2.14336 4 2.72766ZM4.06 6.5611H0.0600002V20.3527H4.06V6.5611ZM10.38 6.5611H6.4V20.3527H10.34V13.1154C10.34 9.08368 15.11 8.70915 15.11 13.1154V20.3527H19.06V11.6173C19.06 4.82063 12 5.07399 10.34 8.41173L10.38 6.5611Z" fill="currentColor"/>
</svg>
