<svg width="24" height="24" viewBox="0 0 24 24" fill="none" xmlns="http://www.w3.org/2000/svg">
<path d="M2.50011 8.99976H21.5001M7.00011 5.99976H7.00911M11.0001 5.99976H11.0091M2.50011 11.9998C2.50011 7.52176 2.50011 5.28176 3.89111 3.89076C5.28211 2.49976 7.52111 2.49976 12.0001 2.49976C16.4781 2.49976 18.7181 2.49976 20.1091 3.89076C21.5001 5.28176 21.5001 7.52076 21.5001 11.9998C21.5001 16.4778 21.5001 18.7178 20.1091 20.1088C18.7181 21.4998 16.4791 21.4998 12.0001 21.4998C7.52211 21.4998 5.28211 21.4998 3.89111 20.1088C2.50011 18.7178 2.50011 16.4788 2.50011 11.9998Z" stroke="currentColor" stroke-width="1.5" stroke-linecap="round" stroke-linejoin="round"/>
<path d="M8.00011 12.9998L9.22711 14.0568C9.74211 14.5018 10.0001 14.7238 10.0001 14.9998C10.0001 15.2758 9.74211 15.4978 9.22711 15.9428L8.00011 16.9998M12.0001 16.9998H16.0001" stroke="currentColor" stroke-width="1.5" stroke-linecap="round" stroke-linejoin="round"/>
</svg>
