<svg width="24" height="24" viewBox="0 0 24 24" fill="none" xmlns="http://www.w3.org/2000/svg">
<path d="M4.99983 12.0004H1.99983M21.9998 12.0004H18.9998M11.9998 19.0004V22.0004M11.9998 2.00037V5.00037M10.8548 8.89137C11.3828 8.29737 11.6478 8.00037 11.9998 8.00037C12.3518 8.00037 12.6168 8.29737 13.1448 8.89137L14.4448 10.3524C15.1488 11.1424 15.4998 11.5374 15.4998 12.0004C15.4998 12.4634 15.1488 12.8584 14.4448 13.6484L13.1448 15.1084C12.6168 15.7034 12.3518 16.0004 11.9998 16.0004C11.6478 16.0004 11.3828 15.7034 10.8548 15.1094L9.55483 13.6484C8.85183 12.8584 8.49983 12.4634 8.49983 12.0004C8.49983 11.5374 8.85083 11.1424 9.55483 10.3524L10.8548 8.89137Z" stroke="currentColor" stroke-width="1.5" stroke-linecap="round" stroke-linejoin="round"/>
</svg>
