<svg width="95px" height="70px" viewBox="0 0 95 70" fill="none" xmlns="http://www.w3.org/2000/svg">
<path fill-rule="evenodd" clip-rule="evenodd" d="M47.4108 65.0585C42.5063 67.8943 36.639 69.5799 30.3877 69.5799C17.5971 69.5799 6.39424 62.6068 0.335046 52.2672C0.335046 52.2192 0.288163 52.2192 0.288163 52.1712C0.288163 52.1232 0.238992 52.1232 0.238992 52.0751L5.1437 49.5274L10.0482 47.0254C10.0974 47.0757 10.1465 47.1215 10.1934 47.2198C14.3766 53.9985 21.8784 58.5199 30.3877 58.5199C33.1305 58.5199 35.7747 58.0396 38.131 57.2689C32.8892 51.2587 29.7155 43.3731 29.7155 34.7648C29.7155 26.2068 32.8423 18.3212 38.035 12.2606C35.6787 11.4442 33.0813 11.0119 30.3877 11.0119C21.9745 11.0119 14.1845 15.5311 9.90525 22.7923C9.85608 22.8403 9.85608 22.8906 9.85608 22.9364L0 17.8409C0.0468836 17.7449 0.0960542 17.6488 0.142938 17.5985C6.15525 7.06914 17.5011 0 30.3877 0C36.639 0 42.5063 1.68324 47.4108 4.56944C52.3153 1.68324 58.1826 0 64.4316 0C77.3184 0 88.6665 7.06914 94.6768 17.5985C94.7248 17.6488 94.7728 17.7449 94.8209 17.8409L84.9639 22.9364C84.9639 22.8906 84.9639 22.8403 84.9158 22.7923C80.6368 15.5311 72.8473 11.0119 64.4316 11.0119C61.7402 11.0119 59.1429 11.4442 56.7866 12.2606C61.9792 18.3212 65.106 26.2068 65.106 34.7648C65.106 43.3731 61.9323 51.2587 56.6905 57.2689C59.0468 58.0396 61.6911 58.5199 64.4316 58.5199C72.9434 58.5199 80.4447 53.9985 84.6277 47.2198C84.6757 47.1215 84.7237 47.0757 84.7718 47.0254L89.6751 49.5274L94.5807 52.0751C94.5807 52.1232 94.5327 52.1232 94.5327 52.1712C94.5327 52.2192 94.4847 52.2192 94.4847 52.2672C88.4264 62.6068 77.2223 69.5799 64.4316 69.5799C58.1826 69.5799 52.3153 67.8943 47.4108 65.0585ZM47.4108 51.2587C43.3705 46.9797 40.7753 41.1615 40.7753 34.7648C40.7753 28.4664 43.2276 22.7443 47.4108 18.4653C51.5939 22.7443 54.0463 28.4664 54.0463 34.7648C54.0463 41.1615 51.4487 46.9797 47.4108 51.2587Z" fill="black" fill-opacity="0.45"/>
</svg>
