<svg width="141" height="39" viewBox="0 0 141 39" fill="none" xmlns="http://www.w3.org/2000/svg">
  <path d="M0.427705 0.761388H18.7335C34.473 0.761388 40.632 9.89805 40.632 19.5705C40.632 29.4121 32.7337 38.1822 17.707 38.1822H0.456218C0.142568 38.1822 0.0285137 37.9848 0.0285137 37.8156C0.0285137 37.6182 0.228109 37.449 0.513246 37.449H3.73529C4.73327 37.449 5.38908 36.8568 5.38908 35.757V3.24295C5.38908 2.42516 4.98989 1.52278 3.67826 1.52278H0.399191C0.142568 1.52278 0 1.35358 0 1.15618C0 0.986985 0.0570273 0.761388 0.427705 0.761388ZM11.8617 36.4338C11.8617 37.2516 12.2324 37.5054 12.7741 37.5054H17.6214C29.5687 37.5054 33.9027 28.4534 33.9027 19.3731C33.9027 10.2928 29.312 1.49458 19.2182 1.49458H12.6315C11.9472 1.49458 11.8902 2.05857 11.8902 2.31236L11.8617 36.4338ZM42.4568 0.761388C42.1717 0.761388 41.9151 0.874187 41.9151 1.09978C41.9151 1.32538 42.0576 1.46638 42.3143 1.46638H45.5363C46.2777 1.46638 46.9905 1.97397 46.9905 3.38395V35.7852C46.9905 36.462 46.4773 37.4772 45.5648 37.4772H42.3713C42.0006 37.4772 41.9721 37.7592 41.9721 37.872C41.9721 37.9848 41.9436 38.1822 42.3713 38.1822H57.8827C58.1108 38.1822 58.4245 38.154 58.4245 37.9284C58.4245 37.7028 58.3674 37.4772 57.9683 37.4772H54.9743C54.5466 37.4772 53.3776 37.2234 53.3776 35.9262V3.04555C53.3776 2.11497 53.9763 1.49458 55.0599 1.49458H57.9968C58.2534 1.49458 58.396 1.35358 58.396 1.15618C58.396 0.958785 58.2534 0.789588 57.9112 0.789588H42.4568V0.761388ZM66.6934 19.4859C66.6934 9.13666 71.3697 0.761388 80.1519 0.761388C88.763 0.761388 93.6103 9.13666 93.6103 19.4859C93.6103 29.8351 89.1907 38.2104 80.1519 38.2104C71.3982 38.2386 66.6934 29.8351 66.6934 19.4859ZM80.1519 39C92.6409 39 100.511 30.2581 100.511 19.5141C100.511 8.77006 92.7264 0 80.1519 0C67.6059 0 59.7931 8.74187 59.7931 19.4859C59.7931 30.2299 67.9195 39 80.1519 39ZM140.43 37.9566C135.525 38.4642 132.817 30.5119 130.336 26.7332C128.483 23.9414 124.548 21.0933 120.67 20.5293C127.057 20.1627 134.214 18.1323 134.214 10.9696C134.214 5.16052 130.593 0.761388 117.305 0.761388H101.993C101.794 0.761388 101.594 0.874187 101.594 1.09978C101.594 1.32538 101.794 1.46638 101.993 1.46638H105.501C106.242 1.46638 106.955 1.97397 106.955 3.38395V35.7852C106.955 36.462 106.441 37.4772 105.529 37.4772H102.079C101.794 37.4772 101.68 37.7028 101.68 37.8156C101.68 37.9284 101.794 38.1822 102.079 38.1822H118.332C118.56 38.1822 118.759 38.0694 118.759 37.8438C118.759 37.6182 118.617 37.4772 118.303 37.4772H115.024C114.596 37.4772 113.427 37.1952 113.427 35.9262V20.6139H115.11C123.15 20.6139 123.749 29.2429 127.741 34.1779C131.163 38.4078 135.639 38.9436 138.177 38.9436C139.261 38.9436 140.002 38.9154 140.686 38.7462C141.114 38.6052 141.2 37.872 140.43 37.9566ZM115.053 1.46638H117.419C121.468 1.46638 128.026 3.04555 128.026 10.603C128.026 17.5401 122.21 19.8807 116.82 19.8807H113.37V3.04555C113.37 2.08677 113.969 1.46638 115.053 1.46638Z" fill="black" fill-opacity="0.45"/>
</svg>
