<svg width="139" height="50" viewBox="0 0 139 50" fill="none" xmlns="http://www.w3.org/2000/svg">
<path d="M15.3327 49.9797C11.1911 49.8136 7.80264 48.6698 5.15313 46.5453C4.64749 46.1395 3.44259 44.9226 3.03835 44.4094C1.96394 43.0459 1.23348 41.7188 0.746273 40.2464C-0.752939 35.7141 0.0186513 29.7666 2.95325 23.2394C5.46588 17.6512 9.34298 12.1089 16.1072 4.43286C17.1036 3.30333 20.0708 0 20.0899 0C20.097 0 19.9353 0.282733 19.7318 0.627029C17.973 3.60039 16.4681 7.10272 15.6483 10.1348C14.3314 15 14.4902 19.1752 16.1136 22.4126C17.2333 24.643 19.1531 26.5749 21.3119 27.6429C25.0911 29.5118 30.6241 29.6664 37.3812 28.0953C37.8465 27.9865 60.8991 21.8099 88.6097 14.3694C116.32 6.92807 138.996 0.844625 139 0.849633C139.008 0.856087 74.6204 28.6643 41.1959 43.091C35.9026 45.375 34.4871 45.9519 31.9985 46.8338C25.6372 49.0885 19.9389 50.1643 15.3327 49.9797Z" fill="black" fill-opacity="0.45"/>
</svg>
