<svg width="125" height="70" viewBox="0 0 125 70" fill="none" xmlns="http://www.w3.org/2000/svg">
<path d="M33.7069 0.0195999C31.2868 0.0998001 28.8293 0.443748 26.4626 1.03541C19.3413 2.81574 12.89 6.87362 8.12645 12.571C3.55888 18.0332 0.757399 24.7571 0.133659 31.7573C0.0267317 32.9531 0 33.6089 0 35.0007C0 36.1983 0.00891058 36.5583 0.0712846 37.4601C0.374244 41.9421 1.54688 46.3172 3.5179 50.3394C5.04517 53.4528 6.93065 56.2044 9.30977 58.7831C9.70005 59.2072 10.6963 60.207 11.1097 60.5919C14.7595 63.9833 18.9243 66.4961 23.5792 68.1107C25.5947 68.8093 27.8099 69.3439 29.9645 69.6522C31.0106 69.8019 31.7662 69.875 33.2703 69.9694C33.7337 69.9979 89.9148 70.014 90.8416 69.9837C97.4247 69.7787 103.641 67.7863 109.106 64.133C114.551 60.4957 118.888 55.3846 121.592 49.427C123.244 45.7861 124.253 41.869 124.575 37.8432C124.707 36.2037 124.718 34.2558 124.602 32.5503C124.112 25.2312 121.296 18.2417 116.552 12.571C112.799 8.08011 108.023 4.61211 102.63 2.45932C99.1569 1.07105 95.5285 0.270882 91.7415 0.0534592C90.9217 0.00712585 90.1358 0 84.9927 0H79.5786V1.3455V2.69099H82.8595C85.9764 2.69099 86.1403 2.69277 86.1314 2.72129C86.1261 2.74624 67.4406 49.6979 66.8596 51.1521L66.7188 51.5049L58.7581 27.1291C54.3813 13.7223 50.7939 2.73911 50.7867 2.72129C50.776 2.69277 50.9703 2.69099 54.2797 2.69099H57.7833V1.3455V0L45.9554 0.00356293C39.4489 0.00356293 33.9368 0.0124741 33.7069 0.0195999ZM49.5802 35.17C55.5521 53.0286 60.4422 67.6545 60.4494 67.6723C60.4583 67.7026 59.8809 67.7026 47.5059 67.6972C37.8753 67.6919 34.4732 67.6865 34.2416 67.6705C32.5557 67.5582 31.6112 67.4549 30.3566 67.2481C22.6293 65.9704 15.5596 62.0408 10.4307 56.1723C5.85425 50.9346 3.11336 44.4691 2.59298 37.6828C2.51991 36.7454 2.511 36.4585 2.511 35.1968C2.511 33.7426 2.54486 33.0386 2.67139 31.8286C3.50007 23.9641 7.31024 16.636 13.3766 11.2434C18.9029 6.33007 25.9066 3.35751 33.297 2.79079C34.3984 2.70525 34.7602 2.69634 36.8613 2.69812L38.7236 2.69991L49.5802 35.17ZM89.9594 2.70882C92.408 2.80505 94.6731 3.12405 96.9988 3.70145C104.471 5.55486 111.12 9.92817 115.732 16.0212C117.463 18.3095 118.89 20.8294 119.947 23.4669C121.173 26.5304 121.904 29.7417 122.127 33.0404C122.219 34.4287 122.207 36.4193 122.1 37.7274C121.868 40.5128 121.33 43.0684 120.434 45.6222C118.473 51.2055 114.968 56.1812 110.284 60.0234C107.843 62.0283 105.093 63.6982 102.167 64.9545C99.1551 66.2466 95.9473 67.1002 92.6718 67.4798C92.0106 67.5564 91.5152 67.5974 90.4317 67.6705C90.2 67.6865 86.6179 67.6919 76.3761 67.6972C68.8164 67.7008 62.6307 67.699 62.6307 67.6919C62.6307 67.6865 68.3495 53.0678 75.3389 35.2093C82.3284 17.3489 88.0525 2.72485 88.0561 2.71238C88.0668 2.68565 89.2733 2.68208 89.9594 2.70882Z" fill="black" fill-opacity="0.45"/>
</svg>
