<svg width="70" height="70" viewBox="0 0 70 70" fill="none" xmlns="http://www.w3.org/2000/svg">
<path fill-rule="evenodd" clip-rule="evenodd" d="M51.2435 3.96776C62.3881 9.82839 70 21.5133 70 34.9818C70 48.4503 62.3881 60.1716 51.2435 65.9958V61.9917C55.5047 59.4436 59.1103 55.8762 61.7326 51.6537L51.2435 47.3947V40.9152L62.7523 49.9064C65.1561 45.4654 66.5036 40.4056 66.5036 34.9818C66.5036 23.5517 60.385 13.5049 51.2435 7.97192V3.96776ZM35.0364 0C40.8637 0 46.3632 1.41966 51.2435 3.96776V7.97192C46.7638 5.27821 41.5192 3.67655 35.9833 3.49454L39.9896 32.1425L51.2435 40.9152V47.3947L34.9636 40.806L18.7929 47.4311V40.988L30.1197 32.1425L34.0895 3.49454C28.4807 3.67655 23.2726 5.27821 18.7929 7.97192V3.96776C23.6368 1.41966 29.1727 0 35.0364 0ZM51.2435 65.9958C46.3632 68.5439 40.8637 70 35.0364 70C29.1727 70 23.6368 68.5439 18.7929 66.0322V61.9917C23.5276 64.8674 29.0999 66.5055 35.0364 66.5055C40.9365 66.5055 46.4724 64.8674 51.2435 61.9917V65.9958ZM18.7929 66.0322C7.61186 60.1716 0 48.4503 0 34.9818C0 21.5133 7.61186 9.82839 18.7929 3.96776V7.97192C9.61498 13.5049 3.49636 23.5153 3.49636 34.9818C3.49636 40.4056 4.88033 45.5382 7.28408 49.9792L18.7929 40.988V47.4311L8.34027 51.7265C10.9625 55.9126 14.5317 59.4436 18.7929 61.9917V66.0322Z" fill="black" fill-opacity="0.45"/>
</svg>
